<svg xmlns="http://www.w3.org/2000/svg"
 xmlns:xlink="http://www.w3.org/1999/xlink"
 width="24px" height="17px"  viewBox="0 0 24 17">
<path fill-rule="evenodd"  fill="#ffffff"
 d="M1.9999847,1.9999809 C1.9999847,1.9999809 22.999962,1.9999809 22.999962,1.9999809 C22.999962,1.9999809 22.999962,3.9999619 22.999962,3.9999619 C22.999962,3.9999619 1.9999847,3.9999619 1.9999847,3.9999619 C1.9999847,3.9999619 1.9999847,1.9999809 1.9999847,1.9999809 ZM1.9999847,7.9999237 C1.9999847,7.9999237 22.999962,7.9999237 22.999962,7.9999237 C22.999962,7.9999237 22.999962,9.999905 22.999962,9.999905 C22.999962,9.999905 1.9999847,9.999905 1.9999847,9.999905 C1.9999847,9.999905 1.9999847,7.9999237 1.9999847,7.9999237 ZM1.9999847,13.999863 C1.9999847,13.999863 22.999962,13.999863 22.999962,13.999863 C22.999962,13.999863 22.999962,15.999844 22.999962,15.999844 C22.999962,15.999844 1.9999847,15.999844 1.9999847,15.999844 C1.9999847,15.999844 1.9999847,13.999863 1.9999847,13.999863 Z"/>
</svg>