<svg xmlns="http://www.w3.org/2000/svg"
 xmlns:xlink="http://www.w3.org/1999/xlink"
 width="70px" height="80px"  viewBox="0 0 70 80">
<path fill-rule="evenodd"  fill="#1c88de"
 d="M58.732666,30.986328 C58.732666,30.986328 59.217316,30.631836 59.217316,30.631836 C59.217316,30.631836 58.80951,30.343506 58.80951,30.343506 C58.80951,30.343506 68.17575,19.138184 68.17575,19.138184 C68.17575,19.138184 43.353912,1.0161133 43.353912,1.0161133 C43.353912,1.0161133 35.59732,12.435059 35.59732,12.435059 C35.59732,12.435059 28.234894,1.0004883 28.234894,1.0004883 C28.234894,1.0004883 1.9893188,18.881592 1.9893188,18.881592 C1.9893188,18.881592 10.936676,30.311035 10.936676,30.311035 C10.936676,30.311035 11.276642,30.68872 11.276642,30.68872 C11.276642,30.68872 11.027496,31.038574 11.027496,31.038574 C11.027496,31.038574 2.0863647,43.96753 2.0863647,43.96753 C2.0863647,43.96753 11.647614,50.906006 11.647614,50.906006 C11.647614,50.906006 11.647614,60.743896 11.647614,60.743896 C11.647614,60.743896 35.72354,78.02246 35.72354,78.02246 C35.72354,78.02246 35.786316,77.94263 35.786316,77.94263 C35.786316,77.94263 58.053802,60.81079 58.053802,60.81079 C58.053802,60.81079 58.053802,51.83716 58.053802,51.83716 C58.053802,51.83716 68.98697,44.392334 68.98697,44.392334 C68.98697,44.392334 58.732666,30.986328 58.732666,30.986328 ZM64.35144,43.636475 C64.35144,43.636475 44.457886,57.673096 44.457886,57.673096 C44.457886,57.673096 37.817383,46.81494 37.817383,46.81494 C37.817383,46.81494 56.132233,32.888916 56.132233,32.888916 C56.132233,32.888916 64.35144,43.636475 64.35144,43.636475 ZM24.549896,25.130615 C24.549896,25.130615 35.562225,17.333252 35.562225,17.333252 C35.562225,17.333252 53.682983,30.674316 53.682983,30.674316 C53.682983,30.674316 36.12433,44.047363 36.12433,44.047363 C36.12433,44.047363 35.700012,44.4375 35.700012,44.4375 C35.700012,44.4375 35.190186,44.042236 35.190186,44.042236 C35.190186,44.042236 16.027893,30.668213 16.027893,30.668213 C16.027893,30.668213 24.549896,25.130615 24.549896,25.130615 ZM44.163513,5.553955 C44.163513,5.553955 63.458984,19.756104 63.458984,19.756104 C63.458984,19.756104 56.170776,28.475342 56.170776,28.475342 C56.170776,28.475342 37.785187,14.945801 37.785187,14.945801 C37.785187,14.945801 44.163513,5.553955 44.163513,5.553955 ZM6.6293335,19.581055 C6.6293335,19.581055 27.34845,5.569092 27.34845,5.569092 C27.34845,5.569092 33.371246,14.923096 33.371246,14.923096 C33.371246,14.923096 20.836945,23.797607 20.836945,23.797607 C20.836945,23.797607 13.569855,28.447021 13.569855,28.447021 C13.569855,28.447021 6.6293335,19.581055 6.6293335,19.581055 ZM13.635773,32.92798 C13.635773,32.92798 33.528503,46.831543 33.528503,46.831543 C33.528503,46.831543 27.101746,57.618164 27.101746,57.618164 C27.101746,57.618164 6.5324097,43.199463 6.5324097,43.199463 C6.5324097,43.199463 13.635773,32.92798 13.635773,32.92798 ZM14.854889,59.17798 C14.854889,59.17798 14.854889,53.23291 14.854889,53.23291 C14.854889,53.23291 28.055481,62.303955 28.055481,62.303955 C28.055481,62.303955 34.0643,52.218994 34.0643,52.218994 C34.0643,52.218994 34.0643,73.50464 34.0643,73.50464 C34.0643,73.50464 14.854889,59.17798 14.854889,59.17798 ZM54.846527,59.111572 C54.846527,59.111572 37.271454,73.49048 37.271454,73.49048 C37.271454,73.49048 37.271454,52.090088 37.271454,52.090088 C37.271454,52.090088 43.483612,62.249268 43.483612,62.249268 C43.483612,62.249268 54.846527,54.020996 54.846527,54.020996 C54.846527,54.020996 54.846527,59.111572 54.846527,59.111572 Z"/>
</svg>