<svg xmlns="http://www.w3.org/2000/svg"
 xmlns:xlink="http://www.w3.org/1999/xlink"
 width="78px" height="56px"  viewBox="0 0 78 56">
<path fill-rule="evenodd"  fill="#1c88de"
 d="M73.670105,53.95459 C73.670105,53.95459 73.670105,1.9753418 73.670105,1.9753418 C73.670105,1.9753418 76.999695,1.9753418 76.999695,1.9753418 C76.999695,1.9753418 76.999695,53.95459 76.999695,53.95459 C76.999695,53.95459 73.670105,53.95459 73.670105,53.95459 ZM66.67645,1.9753418 C66.67645,1.9753418 70.015564,1.9753418 70.015564,1.9753418 C70.015564,1.9753418 70.015564,39.937256 70.015564,39.937256 C70.015564,39.937256 66.67645,39.937256 66.67645,39.937256 C66.67645,39.937256 66.67645,1.9753418 66.67645,1.9753418 ZM67.25458,53.90918 C67.25458,53.90918 65.19745,53.90918 65.19745,53.90918 C65.19745,53.90918 65.19745,44.93994 65.19745,44.93994 C65.19745,44.93994 62.903442,46.915527 62.903442,46.915527 C62.903442,46.915527 62.903442,44.71997 62.903442,44.71997 C62.903442,44.71997 65.19745,42.744873 65.19745,42.744873 C65.19745,42.744873 67.25458,42.744873 67.25458,42.744873 C67.25458,42.744873 67.25458,53.90918 67.25458,53.90918 ZM59.682983,1.9753418 C59.682983,1.9753418 63.106995,1.9753418 63.106995,1.9753418 C63.106995,1.9753418 63.106995,39.937256 63.106995,39.937256 C63.106995,39.937256 59.682983,39.937256 59.682983,39.937256 C59.682983,39.937256 59.682983,1.9753418 59.682983,1.9753418 ZM51.8786,45.896484 C51.8786,46.978516 51.451416,47.558594 50.67621,48.452393 C50.67621,48.452393 47.527466,52.074707 47.527466,52.074707 C47.527466,52.074707 51.8786,52.074707 51.8786,52.074707 C51.8786,52.074707 51.8786,53.90918 51.8786,53.90918 C51.8786,53.90918 45.027527,53.90918 45.027527,53.90918 C45.027527,53.90918 45.027527,52.074707 45.027527,52.074707 C45.027527,52.074707 49.23633,47.229248 49.23633,47.229248 C49.647583,46.74292 49.821594,46.39795 49.821594,45.88086 C49.821594,45.05005 49.331177,44.485107 48.460876,44.485107 C47.78064,44.485107 47.08435,44.830322 47.08435,45.912354 C47.08435,45.912354 45.027527,45.912354 45.027527,45.912354 C45.027527,43.873535 46.530457,42.650635 48.460876,42.650635 C50.45465,42.650635 51.8786,43.88965 51.8786,45.896484 ZM45.66278,1.9753418 C45.66278,1.9753418 49.029053,1.9753418 49.029053,1.9753418 C49.029053,1.9753418 49.029053,39.937256 49.029053,39.937256 C49.029053,39.937256 45.66278,39.937256 45.66278,39.937256 C45.66278,39.937256 45.66278,1.9753418 45.66278,1.9753418 ZM43.1781,45.849365 C43.1781,47.05713 42.624207,47.746826 41.880615,48.13916 C42.687683,48.561768 43.33618,49.330566 43.33618,50.678955 C43.33618,52.905518 41.690674,54.003174 39.760254,54.003174 C37.924988,54.003174 36.200317,53.04663 36.16858,50.710205 C36.16858,50.710205 38.225464,50.710205 38.225464,50.710205 C38.25708,51.713867 38.95337,52.168457 39.760254,52.168457 C40.646362,52.168457 41.27942,51.61963 41.27942,50.61621 C41.27942,49.690918 40.709717,49.079834 39.69702,49.079834 C39.69702,49.079834 39.396484,49.079834 39.396484,49.079834 C39.396484,49.079834 39.396484,47.307373 39.396484,47.307373 C39.396484,47.307373 39.69702,47.307373 39.69702,47.307373 C40.69391,47.307373 41.121094,46.696045 41.121094,45.912354 C41.121094,44.971436 40.48816,44.485107 39.744507,44.485107 C38.969055,44.485107 38.399475,44.986816 38.352173,45.833496 C38.352173,45.833496 36.295166,45.833496 36.295166,45.833496 C36.342712,43.842285 37.845825,42.650635 39.744507,42.650635 C41.73822,42.650635 43.1781,43.96753 43.1781,45.849365 ZM28.987,53.90918 C28.987,53.90918 32.641968,44.57959 32.641968,44.57959 C32.641968,44.57959 29.667358,44.57959 29.667358,44.57959 C29.667358,44.57959 29.667358,46.33545 29.667358,46.33545 C29.667358,46.33545 27.705322,46.33545 27.705322,46.33545 C27.705322,46.33545 27.705322,42.744873 27.705322,42.744873 C27.705322,42.744873 34.87317,42.744873 34.87317,42.744873 C34.87317,42.744873 34.87317,44.57959 34.87317,44.57959 C34.87317,44.57959 31.218018,53.90918 31.218018,53.90918 C31.218018,53.90918 28.987,53.90918 28.987,53.90918 ZM29.936462,1.9753418 C29.936462,1.9753418 33.314392,1.9753418 33.314392,1.9753418 C33.314392,1.9753418 33.314392,39.937256 33.314392,39.937256 C33.314392,39.937256 29.936462,39.937256 29.936462,39.937256 C29.936462,39.937256 29.936462,1.9753418 29.936462,1.9753418 ZM22.311646,47.354736 C22.58075,47.244873 22.88147,47.213623 23.15033,47.213623 C24.669373,47.213623 26.10907,48.452393 26.10907,50.52246 C26.10907,52.717773 24.59021,54.003174 22.596436,54.003174 C20.602783,54.003174 19.083923,52.76465 19.083923,50.553467 C19.083923,49.534424 19.526855,48.593506 20.033203,47.57422 C20.033203,47.57422 22.406494,42.744873 22.406494,42.744873 C22.406494,42.744873 24.653442,42.744873 24.653442,42.744873 C24.653442,42.744873 22.311646,47.354736 22.311646,47.354736 ZM21.140747,50.538086 C21.140747,51.57251 21.757874,52.168457 22.596436,52.168457 C23.43512,52.168457 24.052246,51.57251 24.052246,50.538086 C24.052246,49.55005 23.466736,48.90747 22.596436,48.90747 C21.757874,48.90747 21.140747,49.50293 21.140747,50.538086 ZM22.967224,1.9753418 C22.967224,1.9753418 26.354614,1.9753418 26.354614,1.9753418 C26.354614,1.9753418 26.354614,39.937256 26.354614,39.937256 C26.354614,39.937256 22.967224,39.937256 22.967224,39.937256 C22.967224,39.937256 22.967224,1.9753418 22.967224,1.9753418 ZM17.456055,45.975098 C17.456055,45.975098 17.456055,50.678955 17.456055,50.678955 C17.456055,52.81128 15.873779,54.003174 14.038208,54.003174 C12.202942,54.003174 10.604736,52.81128 10.604736,50.678955 C10.604736,50.678955 10.604736,45.975098 10.604736,45.975098 C10.604736,43.842285 12.202942,42.650635 14.038208,42.650635 C15.873779,42.650635 17.456055,43.842285 17.456055,45.975098 ZM15.399048,46.006104 C15.399048,45.065674 14.845276,44.485107 14.038208,44.485107 C13.231384,44.485107 12.661743,45.065674 12.661743,46.006104 C12.661743,46.006104 12.661743,50.66382 12.661743,50.66382 C12.661743,51.604492 13.231384,52.168457 14.038208,52.168457 C14.845276,52.168457 15.399048,51.604492 15.399048,50.66382 C15.399048,50.66382 15.399048,46.006104 15.399048,46.006104 ZM8.979614,1.9753418 C8.979614,1.9753418 12.403748,1.9753418 12.403748,1.9753418 C12.403748,1.9753418 12.403748,39.937256 12.403748,39.937256 C12.403748,39.937256 8.979614,39.937256 8.979614,39.937256 C8.979614,39.937256 8.979614,1.9753418 8.979614,1.9753418 ZM1.9802856,1.9753418 C1.9802856,1.9753418 5.482849,1.9753418 5.482849,1.9753418 C5.482849,1.9753418 5.482849,53.95459 5.482849,53.95459 C5.482849,53.95459 1.9802856,53.95459 1.9802856,53.95459 C1.9802856,53.95459 1.9802856,1.9753418 1.9802856,1.9753418 ZM60.642517,44.57959 C60.642517,44.57959 56.98761,53.90918 56.98761,53.90918 C56.98761,53.90918 54.75647,53.90918 54.75647,53.90918 C54.75647,53.90918 58.41156,44.57959 58.41156,44.57959 C58.41156,44.57959 55.43695,44.57959 55.43695,44.57959 C55.43695,44.57959 55.43695,46.33545 55.43695,46.33545 C55.43695,46.33545 53.474854,46.33545 53.474854,46.33545 C53.474854,46.33545 53.474854,42.744873 53.474854,42.744873 C53.474854,42.744873 60.642517,42.744873 60.642517,42.744873 C60.642517,42.744873 60.642517,44.57959 60.642517,44.57959 ZM36.93097,1.9753418 C36.93097,1.9753418 40.31842,1.9753418 40.31842,1.9753418 C40.31842,1.9753418 40.31842,39.937256 40.31842,39.937256 C40.31842,39.937256 36.93097,39.937256 36.93097,39.937256 C36.93097,39.937256 36.93097,1.9753418 36.93097,1.9753418 Z"/>
</svg>