<svg xmlns="http://www.w3.org/2000/svg"
 xmlns:xlink="http://www.w3.org/1999/xlink"
 width="65px" height="66px"  viewBox="0 0 65 66">
<path fill-rule="evenodd"  fill="#1c88de"
 d="M56.61145,16.431152 C56.61145,16.431152 51.722656,16.431152 51.722656,16.431152 C51.722656,16.431152 51.722656,6.991455 51.722656,6.991455 C51.722656,3.6940918 49.022217,1.0107422 45.703247,1.0107422 C45.703247,1.0107422 18.293457,1.0107422 18.293457,1.0107422 C14.974365,1.0107422 12.273804,3.6940918 12.273804,6.991455 C12.273804,6.991455 12.273804,16.431152 12.273804,16.431152 C12.273804,16.431152 7.404663,16.431152 7.404663,16.431152 C3.8763428,16.431152 1.0058594,19.37085 1.0058594,22.876953 C1.0058594,22.876953 1.0058594,57.643066 1.0058594,57.643066 C1.0058594,61.14917 3.8763428,64.0022 7.404663,64.0022 C7.404663,64.0022 56.61145,64.0022 56.61145,64.0022 C60.14026,64.0022 63.010742,61.14917 63.010742,57.643066 C63.010742,57.643066 63.010742,22.876953 63.010742,22.876953 C63.010742,19.37085 60.14026,16.431152 56.61145,16.431152 ZM48.908936,19.243408 C48.908936,19.243408 48.908936,61.243164 48.908936,61.243164 C48.908936,61.243164 15.090698,61.243164 15.090698,61.243164 C15.090698,61.243164 15.090698,19.243408 15.090698,19.243408 C15.090698,19.243408 48.908936,19.243408 48.908936,19.243408 ZM15.092041,6.991455 C15.092041,5.237549 16.527832,3.810791 18.293457,3.810791 C18.293457,3.810791 45.703247,3.810791 45.703247,3.810791 C47.468628,3.810791 48.904663,5.237549 48.904663,6.991455 C48.904663,6.991455 48.904663,16.39917 48.904663,16.39917 C48.904663,16.39917 46.082886,16.39917 46.082886,16.39917 C46.082886,16.39917 46.082886,11.678467 46.082886,11.678467 C46.082886,8.894531 43.80432,6.630127 41.002563,6.630127 C41.002563,6.630127 22.994629,6.630127 22.994629,6.630127 C20.192993,6.630127 17.913452,8.894531 17.913452,11.678467 C17.913452,11.678467 17.913452,16.39917 17.913452,16.39917 C17.913452,16.39917 15.092041,16.39917 15.092041,16.39917 C15.092041,16.39917 15.092041,6.991455 15.092041,6.991455 ZM20.731812,11.678467 C20.731812,10.437988 21.746704,9.429932 22.994629,9.429932 C22.994629,9.429932 41.002563,9.429932 41.002563,9.429932 C42.25,9.429932 43.264893,10.437988 43.264893,11.678467 C43.264893,11.678467 43.264893,16.431152 43.264893,16.431152 C43.264893,16.431152 20.731812,16.431152 20.731812,16.431152 C20.731812,16.431152 20.731812,11.678467 20.731812,11.678467 ZM3.8240967,57.643066 C3.8240967,57.643066 3.8240967,22.876953 3.8240967,22.876953 C3.8240967,20.91504 5.430542,19.231445 7.404663,19.231445 C7.404663,19.231445 12.272583,19.243408 12.272583,19.243408 C12.272583,19.243408 12.272583,61.243164 12.272583,61.243164 C12.272583,61.243164 7.404663,61.201904 7.404663,61.201904 C5.430542,61.201904 3.8240967,59.60547 3.8240967,57.643066 ZM60.192505,57.643066 C60.192505,59.60547 58.585815,61.201904 56.61145,61.201904 C56.61145,61.201904 51.72705,61.243164 51.72705,61.243164 C51.72705,61.243164 51.72705,19.243408 51.72705,19.243408 C51.72705,19.243408 56.61145,19.231445 56.61145,19.231445 C58.585815,19.231445 60.192505,20.91504 60.192505,22.876953 C60.192505,22.876953 60.192505,57.643066 60.192505,57.643066 Z"/>
</svg>